<?xml version="1.0" encoding="UTF-8" standalone="no" ?>
<!DOCTYPE svg PUBLIC "-//W3C//DTD SVG 1.1//EN" "http://www.w3.org/Graphics/SVG/1.1/DTD/svg11.dtd">
<svg xmlns="http://www.w3.org/2000/svg" xmlns:xlink="http://www.w3.org/1999/xlink" version="1.1" width="640" height="640" viewBox="0 0 640 640" xml:space="preserve">
<desc>Created with Fabric.js 5.3.0</desc>
<defs>
</defs>
<g transform="matrix(4.58 0 0 1 321.252446184 131.5068493151)" id="7OiT2Lm4F2r-Q8YgLmy1d"  >
<linearGradient id="SVGID_50" gradientUnits="userSpaceOnUse" gradientTransform="matrix(1 0 0 1 -62.6223091977 -62.6223091977)"  x1="0" y1="62.62230919765167" x2="125.24461839530332" y2="62.62230919765167">
<stop offset="0%" style="stop-color:#4C5DC1;stop-opacity: 1"/>
<stop offset="50%" style="stop-color:#6078AD;stop-opacity: 1"/>
<stop offset="100%" style="stop-color:#587DA6;stop-opacity: 1"/>
</linearGradient>
<path style="stroke: rgb(98,134,197); stroke-width: 0; stroke-dasharray: none; stroke-linecap: butt; stroke-dashoffset: 0; stroke-linejoin: miter; stroke-miterlimit: 4; fill: url(#SVGID_50); fill-rule: nonzero; opacity: 1;"  transform=" translate(0, 0)" d="M -62.62231 -36.05391 C -62.62231 -50.727230000000006 -60.02513 -62.62231 -56.821349999999995 -62.62231 L 56.82135000000001 -62.62231 L 56.82135000000001 -62.62231 C 60.02513000000001 -62.62231 62.62231000000001 -50.72723 62.62231000000001 -36.05391 L 62.62231000000001 36.053920000000005 L 62.62231000000001 36.053920000000005 C 62.62231000000001 50.72724000000001 60.02513000000001 62.62232 56.82135000000001 62.62232 L -56.821349999999995 62.62232 L -56.821349999999995 62.62232 C -60.02513 62.62232 -62.62231 50.72724 -62.62231 36.053920000000005 z" stroke-linecap="round" />
</g>
<g transform="matrix(4.58 0 0 1 320 320)" id="nS2MwMDIwCUdGxGFQflia"  >
<linearGradient id="SVGID_52" gradientUnits="userSpaceOnUse" gradientTransform="matrix(1 0 0 1 -62.62231 -62.62231)"  x1="0" y1="62.62230919765167" x2="125.24461839530332" y2="62.62230919765167">
<stop offset="0%" style="stop-color:#4C5DC1;stop-opacity: 1"/>
<stop offset="50%" style="stop-color:#6078AD;stop-opacity: 1"/>
<stop offset="100%" style="stop-color:#587DA6;stop-opacity: 1"/>
</linearGradient>
<path style="stroke: rgb(98,134,197); stroke-width: 0; stroke-dasharray: none; stroke-linecap: butt; stroke-dashoffset: 0; stroke-linejoin: miter; stroke-miterlimit: 4; fill: url(#SVGID_52); fill-rule: nonzero; opacity: 1;"  transform=" translate(0, -0.000005)" d="M -62.62231 -36.05391 C -62.62231 -50.727230000000006 -60.02513 -62.62231 -56.821349999999995 -62.62231 L 56.82135000000001 -62.62231 L 56.82135000000001 -62.62231 C 60.02513000000001 -62.62231 62.62231000000001 -50.72723 62.62231000000001 -36.05391 L 62.62231000000001 36.053920000000005 L 62.62231000000001 36.053920000000005 C 62.62231000000001 50.72724000000001 60.02513000000001 62.62232 56.82135000000001 62.62232 L -56.821349999999995 62.62232 L -56.821349999999995 62.62232 C -60.02513 62.62232 -62.62231 50.72724 -62.62231 36.053920000000005 z" stroke-linecap="round" />
</g>
<g transform="matrix(4.58 0 0 1 320 505.7346957379)" id="cZCQUdFIa8gXVjEHbUqxx"  >
<linearGradient id="SVGID_54" gradientUnits="userSpaceOnUse" gradientTransform="matrix(1 0 0 1 -62.62231 -62.62231)"  x1="0" y1="62.62230919765167" x2="125.24461839530332" y2="62.62230919765167">
<stop offset="0%" style="stop-color:#4C5DC1;stop-opacity: 1"/>
<stop offset="50%" style="stop-color:#6078AD;stop-opacity: 1"/>
<stop offset="100%" style="stop-color:#587DA6;stop-opacity: 1"/>
</linearGradient>
<path style="stroke: rgb(98,134,197); stroke-width: 0; stroke-dasharray: none; stroke-linecap: butt; stroke-dashoffset: 0; stroke-linejoin: miter; stroke-miterlimit: 4; fill: url(#SVGID_54); fill-rule: nonzero; opacity: 1;"  transform=" translate(0, -0.000005)" d="M -62.62231 -36.05391 C -62.62231 -50.727230000000006 -60.02513 -62.62231 -56.821349999999995 -62.62231 L 56.82135000000001 -62.62231 L 56.82135000000001 -62.62231 C 60.02513000000001 -62.62231 62.62231000000001 -50.72723 62.62231000000001 -36.05391 L 62.62231000000001 36.053920000000005 L 62.62231000000001 36.053920000000005 C 62.62231000000001 50.72724000000001 60.02513000000001 62.62232 56.82135000000001 62.62232 L -56.821349999999995 62.62232 L -56.821349999999995 62.62232 C -60.02513 62.62232 -62.62231 50.72724 -62.62231 36.053920000000005 z" stroke-linecap="round" />
</g>
</svg>